# File created by Blade
# Date/Time:  Thu Jan 22 16:31:11 2015
# Frame Rate: 120.000 fps
#------------------------------------------------------
:FULLY-SPECIFIED
:DEGREES
359
root 24.356018 20.119233 -1.158502 8.753185 27.929279 -23.013131
RightUpLeg 9.754411 -18.932042 -31.109294
RightLeg -3.548631 -0.000000 0.000000
RightFoot -11.869017 -7.094033 43.538966
RightToeBase 16.325405 -0.000000 -0.000000
LeftUpLeg -105.615570 28.605633 5.306822
LeftLeg 119.975828 -0.000000 -0.000000
LeftFoot -40.009629 8.897666 -17.214983
LeftToeBase 4.072847 -0.000000 -0.000000
Spine 35.562421 -7.813647 -50.470159
RightShoulder -7.900519 -11.107021 -34.304497
RightArm -13.164056 29.830912 27.398582
RightForeArm 23.256186 0.000000 13.314935
RightHand 13.408856 -0.000000 -39.624683
RightHandThumb1 -24.326973 -0.000000 -32.862282
LeftShoulder -12.117356 24.345597 13.323904
LeftArm 60.361714 -59.120206 -92.365372
LeftForeArm -20.077581 -0.000000 9.662138
LeftHand -30.266222 -0.000000 70.697281
LeftHandThumb1 -26.253704 0.000000 33.147579
Head -8.813776 0.131338 -24.870157
360
root 24.384941 20.072574 -1.209738 8.584774 27.904356 -23.073596
RightUpLeg 9.827014 -18.880940 -31.186187
RightLeg -3.530661 -0.000000 0.000000
RightFoot -11.884062 -7.141478 43.452860
RightToeBase 16.262891 -0.000000 -0.000000
LeftUpLeg -105.690912 28.470948 5.300109
LeftLeg 120.157382 -0.000000 -0.000000
LeftFoot -39.957718 8.977771 -17.249925
LeftToeBase 3.926552 -0.000000 -0.000000
Spine 35.545789 -7.744986 -50.519274
RightShoulder -7.918665 -10.952402 -34.683511
RightArm -13.082400 29.764585 26.982594
RightForeArm 23.066506 -0.000000 13.154088
RightHand 13.448088 0.000000 -39.705666
RightHandThumb1 -24.326973 -0.000000 -32.862282
LeftShoulder -12.037484 24.236490 13.324567
LeftArm 61.145786 -59.396244 -93.311019
LeftForeArm -20.139992 -0.000000 9.932038
LeftHand -30.331655 -0.000000 73.038176
LeftHandThumb1 -26.253704 0.000000 33.147579
Head -8.571379 -0.190282 -25.334192
361
root 24.412545 20.024038 -1.261506 8.423686 27.878058 -23.164399
RightUpLeg 9.866738 -18.710018 -31.214315
RightLeg -3.496757 -0.000000 0.000000
RightFoot -11.992668 -7.277737 43.413270
RightToeBase 16.243894 -0.000000 -0.000000
LeftUpLeg -105.806276 28.360366 5.289713
LeftLeg 120.342639 -0.000000 -0.000000
LeftFoot -39.925582 9.091569 -17.196869
LeftToeBase 3.765684 -0.000000 -0.000000
Spine 35.506503 -7.717239 -50.529558
RightShoulder -7.823171 -10.706434 -35.094283
RightArm -13.234594 29.688711 26.460428
RightForeArm 22.820614 -0.000000 13.127113
RightHand 13.260666 -0.000000 -39.620401
RightHandThumb1 -24.326973 -0.000000 -32.862282
LeftShoulder -12.042224 24.265677 13.218711
LeftArm 62.408102 -59.653361 -94.672040
LeftForeArm -19.819367 -0.000000 10.101676
LeftHand -30.577371 -0.000000 75.459318
LeftHandThumb1 -26.253704 0.000000 33.147579
Head -8.323237 -0.339895 -25.807908
362
root 24.438196 19.975968 -1.310430 8.218241 27.839143 -23.252450
RightUpLeg 9.937741 -18.511940 -31.258757
RightLeg -3.456200 -0.000000 0.000000
RightFoot -12.098060 -7.382499 43.351146
RightToeBase 16.218863 -0.000000 -0.000000
LeftUpLeg -105.874844 28.275804 5.292329
LeftLeg 120.533293 -0.000000 -0.000000
LeftFoot -39.875540 9.183363 -17.147529
LeftToeBase 3.633577 -0.000000 -0.000000
Spine 35.508584 -7.646368 -50.577676
RightShoulder -7.764934 -10.507566 -35.466303
RightArm -13.223584 29.641857 25.988574
RightForeArm 22.625728 -0.000000 12.968602
RightHand 13.248929 -0.000000 -39.576675
RightHandThumb1 -24.326973 -0.000000 -32.862282
LeftShoulder -11.966168 24.060259 13.334061
LeftArm 62.785964 -59.888040 -95.462773
LeftForeArm -19.710245 -0.000000 10.434772
LeftHand -30.618727 -0.000000 77.580981
LeftHandThumb1 -26.253704 0.000000 33.147579
Head -8.194296 -0.846438 -26.266454
363
root 24.463941 19.926088 -1.354636 7.975299 27.799503 -23.375207
RightUpLeg 10.024233 -18.310148 -31.281938
RightLeg -3.405944 -0.000000 0.000000
RightFoot -12.157581 -7.422536 43.296823
RightToeBase 16.140733 -0.000000 -0.000000
LeftUpLeg -105.921315 28.214306 5.323509
LeftLeg 120.733617 -0.000000 -0.000000
LeftFoot -39.853821 9.300557 -17.047953
LeftToeBase 3.518655 -0.000000 -0.000000
Spine 35.518824 -7.582305 -50.567111
RightShoulder -7.695830 -10.209631 -35.900103
RightArm -13.289747 29.525175 25.476811
RightForeArm 22.428901 -0.000000 12.856233
RightHand 13.223299 -0.000000 -39.595354
RightHandThumb1 -24.326973 -0.000000 -32.862282
LeftShoulder -11.987852 24.090576 13.331555
LeftArm 63.936498 -60.108482 -97.031432
LeftForeArm -19.352616 0.000000 10.794461
LeftHand -30.584252 -0.000000 79.466734
LeftHandThumb1 -26.253704 0.000000 33.147579
Head -8.095758 -1.074888 -26.778214
364
root 24.489069 19.874554 -1.398317 7.733269 27.755984 -23.528772
RightUpLeg 10.088279 -18.137158 -31.278175
RightLeg -3.354814 -0.000000 0.000000
RightFoot -12.199761 -7.447145 43.327507
RightToeBase 16.144075 -0.000000 -0.000000
LeftUpLeg -106.005374 28.172885 5.358893
LeftLeg 120.942697 -0.000000 -0.000000
LeftFoot -39.842831 9.422875 -16.935281
LeftToeBase 3.448691 -0.000000 -0.000000
Spine 35.489465 -7.496995 -50.488137
RightShoulder -7.643766 -9.924436 -36.302893
RightArm -13.377647 29.325034 24.915724
RightForeArm 22.375439 0.000000 12.770855
RightHand 13.285005 0.000000 -39.657464
RightHandThumb1 -24.326973 -0.000000 -32.862282
LeftShoulder -11.925485 24.081855 13.446253
LeftArm 64.978260 -60.327117 -98.760601
LeftForeArm -18.740279 0.000000 11.364764
LeftHand -30.591422 -0.000000 81.134438
LeftHandThumb1 -26.253704 0.000000 33.147579
Head -7.899687 -1.317291 -27.262953
365
root 24.515804 19.822065 -1.440640 7.464242 27.726718 -23.697376
RightUpLeg 10.185979 -17.961263 -31.267208
RightLeg -3.315740 -0.000000 0.000000
RightFoot -12.217437 -7.483308 43.299869
RightToeBase 16.153588 -0.000000 -0.000000
LeftUpLeg -106.073837 28.106378 5.417927
LeftLeg 121.160398 -0.000000 -0.000000
LeftFoot -39.815141 9.563141 -16.849372
LeftToeBase 3.305601 -0.000000 -0.000000
Spine 35.492088 -7.441046 -50.374840
RightShoulder -7.563796 -9.491416 -36.754886
RightArm -13.569103 29.104658 24.303235
RightForeArm 22.134879 -0.000000 12.755114
RightHand 13.152002 -0.000000 -39.787090
RightHandThumb1 -24.326973 -0.000000 -32.862282
LeftShoulder -11.885624 24.105413 13.556802
LeftArm 66.027208 -60.506651 -100.681570
LeftForeArm -17.996944 -0.000000 12.236664
LeftHand -30.688316 -0.000000 82.516506
LeftHandThumb1 -26.253704 0.000000 33.147579
Head -7.747598 -1.539792 -27.907855
366
root 24.541113 19.769293 -1.477125 7.146949 27.654255 -23.913961
RightUpLeg 10.275406 -17.760740 -31.213623
RightLeg -3.265515 -0.000000 0.000000
RightFoot -12.224922 -7.506637 43.264004
RightToeBase 16.110635 -0.000000 -0.000000
LeftUpLeg -106.115548 28.114458 5.527002
LeftLeg 121.395613 -0.000000 -0.000000
LeftFoot -39.787996 9.665495 -16.783208
LeftToeBase 3.166136 -0.000000 -0.000000
Spine 35.473743 -7.372402 -50.191081
RightShoulder -7.481028 -8.982324 -37.223311
RightArm -13.809753 28.782328 23.613898
RightForeArm 21.990622 -0.000000 12.766353
RightHand 13.151197 -0.000000 -39.834982
RightHandThumb1 -24.326973 -0.000000 -32.862282
LeftShoulder -11.935257 24.177834 13.594164
LeftArm 66.784986 -60.533344 -102.285326
LeftForeArm -17.396524 -0.000000 13.220814
LeftHand -30.822853 -0.000000 83.525964
LeftHandThumb1 -26.253704 0.000000 33.147579
Head -7.628284 -1.645431 -28.632234
